<svg width="28" height="41" viewBox="0 0 28 41" fill="none" xmlns="http://www.w3.org/2000/svg">
<g id="Group">
<path id="Vector" d="M15.1142 0.211242L15.0938 0.214953L14.9621 0.279868L14.925 0.287286L14.899 0.279868L14.7673 0.214953C14.7475 0.208771 14.7327 0.21186 14.7228 0.224225L14.7154 0.242773L14.6839 1.03659L14.6931 1.07368L14.7117 1.09779L14.9046 1.23504L14.9324 1.24246L14.9547 1.23504L15.1475 1.09779L15.1698 1.06812L15.1772 1.03659L15.1457 0.244626C15.1407 0.224843 15.1302 0.213715 15.1142 0.211242ZM15.6057 0.0016621L15.5815 0.00536948L15.2384 0.177858L15.2199 0.196406L15.2143 0.216807L15.2477 1.01433L15.257 1.03659L15.2718 1.04957L15.6446 1.22206C15.6681 1.22824 15.686 1.2233 15.6984 1.20722L15.7058 1.18126L15.6427 0.0424645C15.6366 0.020208 15.6242 0.00660798 15.6057 0.0016621ZM14.2795 0.00536948C14.2714 0.000416196 14.2616 -0.00118938 14.2523 0.000883832C14.2429 0.00295704 14.2348 0.00854999 14.2295 0.0164987L14.2183 0.0424645L14.1553 1.18126C14.1565 1.20351 14.167 1.21835 14.1868 1.22577L14.2146 1.22206L14.5874 1.04957L14.606 1.03473L14.6134 1.01433L14.6449 0.216807L14.6394 0.194552L14.6208 0.176004L14.2795 0.00536948Z" fill="white"/>
<path id="Vector_2" d="M21.4333 21.7893C22.909 21.7893 24.3243 22.3755 25.3678 23.419C26.4112 24.4625 26.9975 25.8777 26.9975 27.3534V38.4817C26.9975 38.9736 26.8021 39.4453 26.4542 39.7931C26.1064 40.141 25.6347 40.3364 25.1428 40.3364C24.6509 40.3364 24.1791 40.141 23.8313 39.7931C23.4835 39.4453 23.288 38.9736 23.288 38.4817V27.3534C23.288 26.8615 23.0926 26.3898 22.7448 26.0419C22.397 25.6941 21.9252 25.4987 21.4333 25.4987H6.59568C6.10378 25.4987 5.63203 25.6941 5.2842 26.0419C4.93638 26.3898 4.74097 26.8615 4.74097 27.3534V38.4817C4.74097 38.9736 4.54556 39.4453 4.19774 39.7931C3.84991 40.141 3.37816 40.3364 2.88626 40.3364C2.39436 40.3364 1.92261 40.141 1.57479 39.7931C1.22696 39.4453 1.03156 38.9736 1.03156 38.4817V27.3534C1.03156 25.8777 1.61777 24.4625 2.66125 23.419C3.70473 22.3755 5.11998 21.7893 6.59568 21.7893H21.4333ZM17.7239 29.2081C18.1967 29.2086 18.6513 29.3897 18.9951 29.7142C19.3388 30.0387 19.5457 30.4822 19.5734 30.9541C19.6011 31.426 19.4476 31.8907 19.1441 32.2532C18.8407 32.6157 18.4103 32.8487 17.9409 32.9045L17.7239 32.9175H10.3051C9.83237 32.917 9.37768 32.736 9.03394 32.4115C8.69019 32.087 8.48333 31.6434 8.45563 31.1715C8.42793 30.6996 8.58147 30.2349 8.88488 29.8724C9.18829 29.5099 9.61868 29.2769 10.0881 29.2211L10.3051 29.2081H17.7239ZM14.0145 14.3705C15.9805 14.3705 17.8111 14.9844 19.3134 16.0323C19.717 16.3136 19.9923 16.7438 20.0787 17.2282C20.1652 17.7125 20.0557 18.2113 19.7743 18.615C19.4929 19.0186 19.0628 19.2939 18.5784 19.3803C18.0941 19.4667 17.5952 19.3572 17.1916 19.0758C16.2591 18.4273 15.1504 18.0798 14.0145 18.0799C12.8294 18.0799 11.7369 18.4471 10.8374 19.0758C10.6379 19.2211 10.4115 19.3251 10.1714 19.3818C9.9312 19.4384 9.68215 19.4466 9.4388 19.4058C9.19545 19.365 8.96269 19.2761 8.75414 19.1442C8.5456 19.0123 8.36547 18.8401 8.2243 18.6377C8.08313 18.4354 7.98376 18.2069 7.93201 17.9656C7.88027 17.7243 7.87718 17.4752 7.92293 17.2327C7.96869 16.9902 8.06236 16.7593 8.19848 16.5535C8.33459 16.3477 8.5104 16.1711 8.71561 16.0341C10.2705 14.9513 12.1197 14.3706 14.0145 14.3705ZM14.0145 8.80633C17.5718 8.80633 20.8417 10.0601 23.3993 12.1504C23.5921 12.3031 23.7525 12.4927 23.8713 12.7081C23.9901 12.9235 24.0649 13.1603 24.0913 13.4048C24.1177 13.6494 24.0952 13.8967 24.0251 14.1325C23.955 14.3682 23.8387 14.5877 23.683 14.7781C23.5273 14.9685 23.3353 15.126 23.1181 15.2415C22.901 15.357 22.663 15.4281 22.4181 15.4507C22.1732 15.4734 21.9262 15.4471 21.6916 15.3734C21.4569 15.2997 21.2393 15.1801 21.0513 15.0215C19.0667 13.3964 16.5795 12.5107 14.0145 12.5157C11.3437 12.5157 8.89923 13.4542 6.98146 15.0196C6.79315 15.1764 6.57562 15.2944 6.34145 15.3667C6.10728 15.439 5.8611 15.4641 5.61715 15.4407C5.3732 15.4173 5.13631 15.3457 4.92018 15.2302C4.70404 15.1147 4.51294 14.9574 4.35793 14.7676C4.20291 14.5778 4.08705 14.3592 4.01704 14.1243C3.94703 13.8894 3.92427 13.643 3.95005 13.3993C3.97584 13.1556 4.04967 12.9194 4.16728 12.7044C4.28489 12.4894 4.44394 12.2998 4.63525 12.1467C7.28135 9.98215 10.5959 8.80171 14.0145 8.80633ZM14.0145 3.24221C18.9281 3.23523 23.6779 5.00826 27.3851 8.23323C27.7468 8.55836 27.9664 9.01258 27.9965 9.49803C28.0265 9.98349 27.8647 10.4613 27.5458 10.8286C27.2269 11.1959 26.7765 11.4232 26.2917 11.4616C25.8068 11.5 25.3263 11.3464 24.9536 11.0338C21.921 8.39476 18.0346 6.94444 14.0145 6.95162C9.99188 6.94391 6.10331 8.39718 3.07173 11.0413C2.70035 11.3639 2.21599 11.5259 1.72521 11.4914C1.23443 11.457 0.777428 11.229 0.454742 10.8576C0.132056 10.4863 -0.0298817 10.0019 0.00455299 9.51111C0.0389877 9.02033 0.266974 8.56333 0.638358 8.24064C4.3459 5.01173 9.09804 3.23594 14.0145 3.24221Z" fill="white"/>
</g>
</svg>
