<svg width="32" height="32" viewBox="0 0 32 32" fill="none" xmlns="http://www.w3.org/2000/svg">
<path d="M17.732 4.19922L29.244 24.1379C29.4195 24.4419 29.5119 24.7868 29.5119 25.1379C29.5119 25.4889 29.4195 25.8338 29.244 26.1379C29.0685 26.4419 28.816 26.6944 28.512 26.8699C28.2079 27.0455 27.8631 27.1379 27.512 27.1379H4.48799C4.13692 27.1379 3.79204 27.0455 3.488 26.8699C3.18397 26.6944 2.9315 26.4419 2.75597 26.1379C2.58044 25.8338 2.48803 25.4889 2.48804 25.1379C2.48804 24.7868 2.58045 24.4419 2.75599 24.1379L14.268 4.19922C15.0373 2.86589 16.9613 2.86589 17.732 4.19922ZM16 6.53255L5.64265 24.4712H26.3573L16 6.53255ZM16 20.0019C16.3536 20.0019 16.6927 20.1424 16.9428 20.3924C17.1928 20.6425 17.3333 20.9816 17.3333 21.3352C17.3333 21.6888 17.1928 22.028 16.9428 22.278C16.6927 22.5281 16.3536 22.6686 16 22.6686C15.6464 22.6686 15.3072 22.5281 15.0572 22.278C14.8071 22.028 14.6667 21.6888 14.6667 21.3352C14.6667 20.9816 14.8071 20.6425 15.0572 20.3924C15.3072 20.1424 15.6464 20.0019 16 20.0019ZM16 10.6686C16.3536 10.6686 16.6927 10.809 16.9428 11.0591C17.1928 11.3091 17.3333 11.6483 17.3333 12.0019V17.3352C17.3333 17.6888 17.1928 18.028 16.9428 18.278C16.6927 18.5281 16.3536 18.6686 16 18.6686C15.6464 18.6686 15.3072 18.5281 15.0572 18.278C14.8071 18.028 14.6667 17.6888 14.6667 17.3352V12.0019C14.6667 11.6483 14.8071 11.3091 15.0572 11.0591C15.3072 10.809 15.6464 10.6686 16 10.6686Z" fill="black"/>
</svg>
