<svg width="32" height="32" viewBox="0 0 32 32" fill="none" xmlns="http://www.w3.org/2000/svg">
<path d="M26.6666 23.3346C27.1802 23.3349 27.674 23.5327 28.0458 23.8872C28.4175 24.2416 28.6386 24.7255 28.6633 25.2385C28.688 25.7516 28.5143 26.2544 28.1784 26.6429C27.8424 27.0314 27.3698 27.2757 26.8586 27.3253L26.6666 27.3346H5.33325C4.81963 27.3344 4.32579 27.1365 3.95407 26.7821C3.58235 26.4276 3.36124 25.9438 3.33655 25.4307C3.31187 24.9177 3.48551 24.4149 3.82149 24.0264C4.15746 23.6379 4.63003 23.3935 5.14125 23.344L5.33325 23.3346H26.6666ZM26.6666 14.0013C27.197 14.0013 27.7057 14.212 28.0808 14.5871C28.4559 14.9622 28.6666 15.4709 28.6666 16.0013C28.6666 16.5317 28.4559 17.0404 28.0808 17.4155C27.7057 17.7906 27.197 18.0013 26.6666 18.0013H5.33325C4.80282 18.0013 4.29411 17.7906 3.91904 17.4155C3.54397 17.0404 3.33325 16.5317 3.33325 16.0013C3.33325 15.4709 3.54397 14.9622 3.91904 14.5871C4.29411 14.212 4.80282 14.0013 5.33325 14.0013H26.6666ZM26.6666 4.66797C27.197 4.66797 27.7057 4.87868 28.0808 5.25376C28.4559 5.62883 28.6666 6.13754 28.6666 6.66797C28.6666 7.1984 28.4559 7.70711 28.0808 8.08218C27.7057 8.45726 27.197 8.66797 26.6666 8.66797H5.33325C4.80282 8.66797 4.29411 8.45726 3.91904 8.08218C3.54397 7.70711 3.33325 7.1984 3.33325 6.66797C3.33325 6.13754 3.54397 5.62883 3.91904 5.25376C4.29411 4.87868 4.80282 4.66797 5.33325 4.66797H26.6666Z" fill="black"/>
</svg>
