<svg width="22" height="22" viewBox="0 0 22 22" fill="none" xmlns="http://www.w3.org/2000/svg">
<path d="M12.2989 1.14844L20.9329 16.1024C21.0646 16.3305 21.1339 16.5891 21.1339 16.8524C21.1339 17.1157 21.0646 17.3744 20.9329 17.6024C20.8013 17.8304 20.6119 18.0198 20.3839 18.1515C20.1559 18.2831 19.8972 18.3524 19.6339 18.3524H2.36593C2.10263 18.3524 1.84397 18.2831 1.61594 18.1515C1.38792 18.0198 1.19857 17.8304 1.06692 17.6024C0.935271 17.3744 0.865965 17.1157 0.865967 16.8524C0.865968 16.5891 0.935278 16.3305 1.06693 16.1024L9.70093 1.14844C10.2779 0.148438 11.7209 0.148438 12.2989 1.14844ZM10.9999 13.0004C10.7347 13.0004 10.4804 13.1058 10.2928 13.2933C10.1053 13.4809 9.99993 13.7352 9.99993 14.0004C9.99993 14.2657 10.1053 14.52 10.2928 14.7075C10.4804 14.8951 10.7347 15.0004 10.9999 15.0004C11.2651 15.0004 11.5195 14.8951 11.707 14.7075C11.8946 14.52 11.9999 14.2657 11.9999 14.0004C11.9999 13.7352 11.8946 13.4809 11.707 13.2933C11.5195 13.1058 11.2651 13.0004 10.9999 13.0004ZM10.9999 6.00044C10.755 6.00047 10.5186 6.09039 10.3356 6.25315C10.1525 6.41591 10.0356 6.64019 10.0069 6.88344L9.99993 7.00044V11.0004C10.0002 11.2553 10.0978 11.5005 10.2728 11.6858C10.4477 11.8711 10.6869 11.9827 10.9413 11.9976C11.1958 12.0125 11.4463 11.9298 11.6418 11.7662C11.8372 11.6026 11.9628 11.3705 11.9929 11.1174L11.9999 11.0004V7.00044C11.9999 6.73522 11.8946 6.48087 11.707 6.29333C11.5195 6.10579 11.2651 6.00044 10.9999 6.00044Z" fill="black"/>
</svg>
