<svg width="24" height="24" viewBox="0 0 24 24" fill="none" xmlns="http://www.w3.org/2000/svg">
<path d="M9 21C7.9 21 6.95833 20.6083 6.175 19.825C5.39167 19.0417 5 18.1 5 17V8.825C4.41667 8.60833 3.93767 8.246 3.563 7.738C3.18833 7.23 3.00067 6.65067 3 6C3 5.16667 3.29167 4.45833 3.875 3.875C4.45833 3.29167 5.16667 3 6 3C6.83333 3 7.54167 3.29167 8.125 3.875C8.70833 4.45833 9 5.16667 9 6C9 6.65 8.81267 7.22933 8.438 7.738C8.06333 8.24667 7.584 8.609 7 8.825V17C7 17.55 7.196 18.021 7.588 18.413C7.98 18.805 8.45067 19.0007 9 19C9.54933 18.9993 10.0203 18.8037 10.413 18.413C10.8057 18.0223 11.0013 17.5513 11 17V7C11 5.9 11.3917 4.95833 12.175 4.175C12.9583 3.39167 13.9 3 15 3C16.1 3 17.0417 3.39167 17.825 4.175C18.6083 4.95833 19 5.9 19 7V15.175C19.5833 15.3917 20.0627 15.7543 20.438 16.263C20.8133 16.7717 21.0007 17.3507 21 18C21 18.8333 20.7083 19.5417 20.125 20.125C19.5417 20.7083 18.8333 21 18 21C17.1667 21 16.4583 20.7083 15.875 20.125C15.2917 19.5417 15 18.8333 15 18C15 17.35 15.1877 16.7667 15.563 16.25C15.9383 15.7333 16.4173 15.375 17 15.175V7C17 6.45 16.8043 5.97933 16.413 5.588C16.0217 5.19667 15.5507 5.00067 15 5C14.4493 4.99933 13.9787 5.19533 13.588 5.588C13.1973 5.98067 13.0013 6.45133 13 7V17C13 18.1 12.6083 19.0417 11.825 19.825C11.0417 20.6083 10.1 21 9 21Z" fill="black"/>
</svg>
