<svg width="14" height="14" viewBox="0 0 14 14" fill="none" xmlns="http://www.w3.org/2000/svg">
<path id="Vector" d="M2.45049 5.11881L7.44649 5.79181L8.05849 10.6398L11.7555 1.39681L2.45049 5.11881ZM0.434486 5.85581C0.324856 5.84132 0.223122 5.79089 0.145203 5.71242C0.0672844 5.63395 0.017578 5.53186 0.00386177 5.42213C-0.00985449 5.3124 0.0131934 5.20122 0.0693987 5.10599C0.125604 5.01075 0.211796 4.93684 0.314487 4.89581L12.4675 0.0358061C12.5584 -0.000564568 12.6579 -0.00946811 12.7538 0.0101993C12.8496 0.0298668 12.9376 0.0772403 13.0068 0.146447C13.0761 0.215653 13.1234 0.303649 13.1431 0.399526C13.1628 0.495402 13.1539 0.594942 13.1175 0.685806L8.26849 12.8058C8.22732 12.9085 8.15323 12.9947 8.05783 13.0508C7.96244 13.1069 7.85112 13.1298 7.74134 13.1158C7.63155 13.1019 7.5295 13.0519 7.45117 12.9737C7.37283 12.8955 7.32265 12.7936 7.30849 12.6838L6.55049 6.67981L0.434486 5.85581Z" fill="white"/>
</svg>
