<svg width="32" height="32" viewBox="0 0 32 32" fill="none" xmlns="http://www.w3.org/2000/svg">
<path d="M5.33325 25.3346V13.3346C5.33325 12.9124 5.42792 12.5124 5.61725 12.1346C5.80659 11.7569 6.06747 11.4457 6.39992 11.2013L14.3999 5.2013C14.8666 4.84575 15.3999 4.66797 15.9999 4.66797C16.5999 4.66797 17.1333 4.84575 17.5999 5.2013L25.5999 11.2013C25.9333 11.4457 26.1946 11.7569 26.3839 12.1346C26.5733 12.5124 26.6675 12.9124 26.6666 13.3346V25.3346C26.6666 26.068 26.4053 26.696 25.8826 27.2186C25.3599 27.7413 24.7324 28.0022 23.9999 28.0013H19.9999C19.6221 28.0013 19.3057 27.8733 19.0506 27.6173C18.7955 27.3613 18.6675 27.0449 18.6666 26.668V20.0013C18.6666 19.6235 18.5386 19.3071 18.2826 19.052C18.0266 18.7969 17.7101 18.6689 17.3333 18.668H14.6666C14.2888 18.668 13.9724 18.796 13.7173 19.052C13.4621 19.308 13.3341 19.6244 13.3333 20.0013V26.668C13.3333 27.0457 13.2053 27.3626 12.9493 27.6186C12.6933 27.8746 12.3768 28.0022 11.9999 28.0013H7.99992C7.26659 28.0013 6.63903 27.7404 6.11725 27.2186C5.59547 26.6969 5.33414 26.0689 5.33325 25.3346Z" fill="black"/>
</svg>
