<svg width="42" height="38" viewBox="0 0 42 38" fill="none" xmlns="http://www.w3.org/2000/svg">
<path id="Vector" d="M4.66667 14.25L8.16667 3.5625H33.8333L37.3333 14.25M33.8333 26.125C32.9051 26.125 32.0148 25.7497 31.3585 25.0816C30.7021 24.4135 30.3333 23.5073 30.3333 22.5625C30.3333 21.6177 30.7021 20.7115 31.3585 20.0434C32.0148 19.3753 32.9051 19 33.8333 19C34.7616 19 35.6518 19.3753 36.3082 20.0434C36.9646 20.7115 37.3333 21.6177 37.3333 22.5625C37.3333 23.5073 36.9646 24.4135 36.3082 25.0816C35.6518 25.7497 34.7616 26.125 33.8333 26.125ZM8.16667 26.125C7.23841 26.125 6.34817 25.7497 5.69179 25.0816C5.03542 24.4135 4.66667 23.5073 4.66667 22.5625C4.66667 21.6177 5.03542 20.7115 5.69179 20.0434C6.34817 19.3753 7.23841 19 8.16667 19C9.09492 19 9.98516 19.3753 10.6415 20.0434C11.2979 20.7115 11.6667 21.6177 11.6667 22.5625C11.6667 23.5073 11.2979 24.4135 10.6415 25.0816C9.98516 25.7497 9.09492 26.125 8.16667 26.125ZM37.1467 2.375C36.68 0.9975 35.3733 0 33.8333 0H8.16667C6.62667 0 5.32 0.9975 4.85333 2.375L0 16.625V35.625C0 36.2549 0.245833 36.859 0.683417 37.3044C1.121 37.7498 1.71449 38 2.33333 38H4.66667C5.2855 38 5.879 37.7498 6.31658 37.3044C6.75417 36.859 7 36.2549 7 35.625V33.25H35V35.625C35 36.2549 35.2458 36.859 35.6834 37.3044C36.121 37.7498 36.7145 38 37.3333 38H39.6667C40.2855 38 40.879 37.7498 41.3166 37.3044C41.7542 36.859 42 36.2549 42 35.625V16.625L37.1467 2.375Z" fill="white"/>
</svg>
